# xmcd CD database file
#
# Track frame offsets:
#	182
#	17400
#	39710
#	59350
#	76585
#	94922
#	110765
#	127885
#	147790
#	163972
#	184177
#
# Disc length: 2879 seconds
#
# Revision: 3
# Processed by: cddbd v1.4PL0 Copyright (c) Steve Scherf et al.
# Submitted via: CDex 1.40Release
#
DISCID=8d0b3d0b
DTITLE=Roger Chapman - Chappo
DYEAR=1986
DGENRE=Rock
TTITLE0=Midnight Child
TTITLE1=Moth To a Flame
TTITLE2=Keep Forgetting
TTITLE3=Shape of Things
TTITLE4=Face of Stone
TTITLE5=Let's Spend The Night Together
TTITLE6=Who Pulled The Night Down
TTITLE7=Always Gotta Pay in The End
TTITLE8=Hang on to a Dream
TTITLE9=Pills
TTITLE10=Don't Give Up
EXTD=YEAR: 1986 ID3G: 17
EXTT0=
EXTT1=
EXTT2=
EXTT3=
EXTT4=
EXTT5=
EXTT6=
EXTT7=
EXTT8=
EXTT9=
EXTT10=
PLAYORDER=
